<?xml version="1.0" encoding="UTF-8" standalone="no"?>
<!-- Created with Inkscape (http://www.inkscape.org/) -->

<svg
   xmlns:dc="http://purl.org/dc/elements/1.1/"
   xmlns:cc="http://creativecommons.org/ns#"
   xmlns:rdf="http://www.w3.org/1999/02/22-rdf-syntax-ns#"
   xmlns:svg="http://www.w3.org/2000/svg"
   xmlns="http://www.w3.org/2000/svg"
   xmlns:sodipodi="http://sodipodi.sourceforge.net/DTD/sodipodi-0.dtd"
   xmlns:inkscape="http://www.inkscape.org/namespaces/inkscape"
   version="1.1"
   id="svg2"
   xml:space="preserve"
   width="471.50119"
   height="360.08145"
   viewBox="0 0 471.50119 360.08146"
   sodipodi:docname="gd.svg"
   inkscape:version="0.92.4 5da689c313, 2019-01-14"><metadata
     id="metadata8"><rdf:RDF><cc:Work
         rdf:about=""><dc:format>image/svg+xml</dc:format><dc:type
           rdf:resource="http://purl.org/dc/dcmitype/StillImage" /><dc:title></dc:title></cc:Work></rdf:RDF></metadata><defs
     id="defs6"><clipPath
       clipPathUnits="userSpaceOnUse"
       id="clipPath20"><path
         d="M 707.676,3362.67 0,2144.51 315.645,1567.19 1029.61,2796.26 Z"
         id="path18"
         inkscape:connector-curvature="0" /></clipPath><linearGradient
       x1="0"
       y1="0"
       x2="1"
       y2="0"
       gradientUnits="userSpaceOnUse"
       gradientTransform="matrix(-34.6413,-28.8575,-28.8575,34.6413,98.1821,285.659)"
       spreadMethod="pad"
       id="linearGradient26"><stop
         style="stop-opacity:1;stop-color:#288e42"
         offset="0"
         id="stop22" /><stop
         style="stop-opacity:1;stop-color:#41bb69"
         offset="1"
         id="stop24" /></linearGradient><clipPath
       clipPathUnits="userSpaceOnUse"
       id="clipPath36"><path
         d="m 2067.88,2150.39 -1415.79,-4.02 -336.445,-579.18 1412.395,0.28 z"
         id="path34"
         inkscape:connector-curvature="0" /></clipPath><linearGradient
       x1="0"
       y1="0"
       x2="1"
       y2="0"
       gradientUnits="userSpaceOnUse"
       gradientTransform="matrix(57.0153,-24.9291,-24.9291,-57.0153,62.6787,210.581)"
       spreadMethod="pad"
       id="linearGradient44"><stop
         style="stop-opacity:1;stop-color:#3e53ad"
         offset="0"
         id="stop38" /><stop
         style="stop-opacity:1;stop-color:#5675c2"
         offset="0.557148"
         id="stop40" /><stop
         style="stop-opacity:1;stop-color:#5675c2"
         offset="1"
         id="stop42" /></linearGradient><clipPath
       clipPathUnits="userSpaceOnUse"
       id="clipPath54"><path
         d="m 1357.53,3360.75 -649.854,1.92 690.124,-1214.19 670.08,1.91 z"
         id="path52"
         inkscape:connector-curvature="0" /></clipPath><linearGradient
       x1="0"
       y1="0"
       x2="1"
       y2="0"
       gradientUnits="userSpaceOnUse"
       gradientTransform="matrix(-11.1338,33.7454,33.7454,11.1338,161.316,207.341)"
       spreadMethod="pad"
       id="linearGradient60"><stop
         style="stop-opacity:1;stop-color:#dd9f14"
         offset="0"
         id="stop56" /><stop
         style="stop-opacity:1;stop-color:#facf31"
         offset="1"
         id="stop58" /></linearGradient><clipPath
       clipPathUnits="userSpaceOnUse"
       id="clipPath70"><path
         d="m 3467.63,3362.67 -707.68,-1218.16 315.65,-577.32 336.44,579.18 377.53,649.89 z"
         id="path68"
         inkscape:connector-curvature="0" /></clipPath><linearGradient
       x1="0"
       y1="0"
       x2="1"
       y2="0"
       gradientUnits="userSpaceOnUse"
       gradientTransform="matrix(-34.6413,-28.8575,-28.8575,34.6413,374.178,285.659)"
       spreadMethod="pad"
       id="linearGradient78"><stop
         style="stop-opacity:1;stop-color:#41bb69"
         offset="0"
         id="stop72" /><stop
         style="stop-opacity:1;stop-color:#41bb69"
         offset="0.490798"
         id="stop74" /><stop
         style="stop-opacity:1;stop-color:#41bb69"
         offset="1"
         id="stop76" /></linearGradient><clipPath
       clipPathUnits="userSpaceOnUse"
       id="clipPath88"><path
         d="m 4827.83,2150.39 -670.08,-1.91 -745.71,-2.11 -336.44,-579.18 1412.38,0.28 z"
         id="path86"
         inkscape:connector-curvature="0" /></clipPath><linearGradient
       x1="0"
       y1="0"
       x2="1"
       y2="0"
       gradientUnits="userSpaceOnUse"
       gradientTransform="matrix(57.0157,-24.9292,-24.9292,-57.0157,338.673,210.581)"
       spreadMethod="pad"
       id="linearGradient96"><stop
         style="stop-opacity:1;stop-color:#5675c2"
         offset="0"
         id="stop90" /><stop
         style="stop-opacity:1;stop-color:#5675c2"
         offset="0.557148"
         id="stop92" /><stop
         style="stop-opacity:1;stop-color:#5675c2"
         offset="1"
         id="stop94" /></linearGradient><clipPath
       clipPathUnits="userSpaceOnUse"
       id="clipPath106"><path
         d="m 4117.48,3360.75 -649.85,1.92 321.94,-566.41 368.18,-647.78 670.08,1.91 z"
         id="path104"
         inkscape:connector-curvature="0" /></clipPath><linearGradient
       x1="0"
       y1="0"
       x2="1"
       y2="0"
       gradientUnits="userSpaceOnUse"
       gradientTransform="matrix(-11.1338,33.7454,33.7454,11.1338,437.312,207.341)"
       spreadMethod="pad"
       id="linearGradient112"><stop
         style="stop-opacity:1;stop-color:#facf31"
         offset="0"
         id="stop108" /><stop
         style="stop-opacity:1;stop-color:#facf31"
         offset="1"
         id="stop110" /></linearGradient></defs><sodipodi:namedview
     pagecolor="#ffffff"
     bordercolor="#666666"
     borderopacity="1"
     objecttolerance="10"
     gridtolerance="10"
     guidetolerance="10"
     inkscape:pageopacity="0"
     inkscape:pageshadow="2"
     inkscape:window-width="1350"
     inkscape:window-height="752"
     id="namedview4"
     showgrid="false"
     fit-margin-top="0"
     fit-margin-left="0"
     fit-margin-right="0"
     fit-margin-bottom="0"
     inkscape:zoom="0.74438936"
     inkscape:cx="615.60332"
     inkscape:cy="153.25078"
     inkscape:window-x="4"
     inkscape:window-y="4"
     inkscape:window-maximized="0"
     inkscape:current-layer="g10" /><g
     id="g10"
     inkscape:groupmode="layer"
     inkscape:label="ink_ext_XXXXXX"
     transform="matrix(1.3333333,0,0,-1.3333333,-86.102738,448.35599)"><g
       id="g3906"
       transform="translate(137.99601)"><path
         d="M 70.7676,336.267 0,214.451 31.5645,156.719 102.961,279.626 70.7676,336.267"
         style="fill:url(#linearGradient26);fill-opacity:1;fill-rule:nonzero;stroke:none;stroke-width:0.1"
         id="path28"
         inkscape:connector-curvature="0" /><path
         d="m 206.788,215.039 -141.579,-0.402 -33.6445,-57.918 141.2395,0.028 33.984,58.292"
         style="fill:url(#linearGradient44);fill-opacity:1;fill-rule:nonzero;stroke:none;stroke-width:0.1"
         id="path46"
         inkscape:connector-curvature="0" /><path
         d="m 135.753,336.075 -64.9854,0.192 69.0124,-121.419 67.008,0.191 -71.035,121.036"
         style="fill:url(#linearGradient60);fill-opacity:1;fill-rule:nonzero;stroke:none;stroke-width:0.1"
         id="path62"
         inkscape:connector-curvature="0" /></g><g
       id="g3919"
       transform="translate(-0.00104458)"><path
         d="m 100.935,81.8922 c -2.5588,-0.9852 -7.6784,-2.4281 -13.6498,-2.4281 -6.6946,0 -12.2071,1.705 -16.5379,5.841 -3.8059,3.675 -6.1692,9.582 -6.1692,16.4709 0,13.192 9.1223,22.838 23.9532,22.838 5.1191,0 9.1882,-1.114 11.0917,-2.034 l -1.4445,-4.659 c -2.3621,1.114 -5.3152,1.901 -9.7781,1.901 -10.7625,0 -17.7844,-6.691 -17.7844,-17.782 0,-11.2228 6.6938,-17.8509 17.0625,-17.8509 3.7403,0 6.3,0.525 7.6125,1.1808 v 13.191 h -8.9238 v 4.5941 H 100.935 V 81.8922"
         style="fill:#5f6062;fill-opacity:1;fill-rule:nonzero;stroke:none;stroke-width:0.1"
         id="path116"
         inkscape:connector-curvature="0" /><path
         d="m 113.343,95.7391 c 0,-6.9551 3.937,-12.2071 9.581,-12.2071 5.513,0 9.647,5.1852 9.647,12.3379 0,5.3811 -2.69,12.1411 -9.516,12.1411 -6.759,0 -9.712,-6.3 -9.712,-12.2719 z m 25.135,0.3269 c 0,-11.7449 -8.205,-16.8629 -15.816,-16.8629 -8.531,0 -15.225,6.2981 -15.225,16.3391 0,10.5658 7.021,16.8018 15.75,16.8018 9.122,0 15.291,-6.629 15.291,-16.278"
         style="fill:#5f6062;fill-opacity:1;fill-rule:nonzero;stroke:none;stroke-width:0.1"
         id="path118"
         inkscape:connector-curvature="0" /><path
         d="m 149.375,95.7391 c 0,-6.9551 3.938,-12.2071 9.581,-12.2071 5.514,0 9.648,5.1852 9.648,12.3379 0,5.3811 -2.691,12.1411 -9.517,12.1411 -6.758,0 -9.712,-6.3 -9.712,-12.2719 z m 25.135,0.3269 c 0,-11.7449 -8.203,-16.8629 -15.816,-16.8629 -8.53,0 -15.225,6.2981 -15.225,16.3391 0,10.5658 7.021,16.8018 15.751,16.8018 9.121,0 15.29,-6.629 15.29,-16.278"
         style="fill:#5f6062;fill-opacity:1;fill-rule:nonzero;stroke:none;stroke-width:0.1"
         id="path120"
         inkscape:connector-curvature="0" /><path
         d="m 203.192,99.1531 c 0,0.9829 -0.065,1.8369 -0.328,2.5579 -1.05,3.412 -3.806,6.169 -8.072,6.169 -5.513,0 -9.45,-4.659 -9.45,-12.0101 0,-6.234 3.217,-11.4199 9.385,-11.4199 3.61,0 6.826,2.234 8.006,5.9082 0.328,0.9859 0.459,2.0996 0.459,3.0848 z m 5.776,-14.5703 c 0,-7.3508 -1.511,-11.7469 -4.53,-14.5687 -3.149,-2.8231 -7.612,-3.8082 -11.615,-3.8082 -3.804,0 -8.006,0.9203 -10.565,2.6281 l 1.443,4.4609 c 2.1,-1.3789 5.381,-2.559 9.32,-2.559 5.906,0 10.237,3.084 10.237,11.1563 v 3.4777 h -0.131 c -1.707,-2.9519 -5.186,-5.3148 -10.106,-5.3148 -7.875,0 -13.52,6.6929 -13.52,15.4871 0,10.7628 7.022,16.8018 14.373,16.8018 5.512,0 8.465,-2.822 9.909,-5.45 h 0.132 l 0.196,4.792 h 5.119 c -0.196,-2.231 -0.262,-4.857 -0.262,-8.664 V 84.5828"
         style="fill:#5f6062;fill-opacity:1;fill-rule:nonzero;stroke:none;stroke-width:0.1"
         id="path122"
         inkscape:connector-curvature="0" /><path
         d="m 218.486,126.517 h 5.776 V 79.9238 h -5.776 v 46.5932"
         style="fill:#5f6062;fill-opacity:1;fill-rule:nonzero;stroke:none;stroke-width:0.1"
         id="path124"
         inkscape:connector-curvature="0" /><path
         d="m 254.122,98.8891 c 0.066,3.6099 -1.508,9.3189 -8.006,9.3189 -5.906,0 -8.4,-5.316 -8.859,-9.3189 z m -16.931,-4.1352 c 0.131,-7.8098 5.054,-11.025 10.894,-11.025 4.135,0 6.694,0.7211 8.794,1.641 l 1.051,-4.1347 c -2.036,-0.918 -5.579,-2.0321 -10.632,-2.0321 -9.779,0 -15.62,6.4957 -15.62,16.077 0,9.5819 5.644,17.0639 14.897,17.0639 10.435,0 13.126,-9.058 13.126,-14.8991 0,-1.1808 -0.065,-2.034 -0.197,-2.691 h -22.313"
         style="fill:#5f6062;fill-opacity:1;fill-rule:nonzero;stroke:none;stroke-width:0.1"
         id="path126"
         inkscape:connector-curvature="0" /><path
         d="m 286.678,84.3852 c 1.444,-0.1961 3.543,-0.2622 5.776,-0.2622 12.271,0 18.833,6.825 18.833,18.769 0.067,10.434 -5.84,17.063 -17.915,17.063 -2.954,0 -5.184,-0.263 -6.694,-0.592 z M 280.971,123.5 c 3.475,0.588 7.61,0.985 12.137,0.985 8.205,0 14.045,-1.97 17.917,-5.515 4.002,-3.609 6.299,-8.727 6.299,-15.88 0,-7.2201 -2.297,-13.1259 -6.365,-17.1959 -4.199,-4.1332 -11.023,-6.364 -19.621,-6.364 -4.135,0 -7.482,0.1949 -10.367,0.525 V 123.5"
         style="fill:#5f6062;fill-opacity:1;fill-rule:nonzero;stroke:none;stroke-width:0.1"
         id="path128"
         inkscape:connector-curvature="0" /><path
         d="m 324.484,101.776 c 0,3.741 -0.066,6.956 -0.263,9.91 h 5.051 l 0.265,-6.3 h 0.194 c 1.446,4.265 4.991,6.958 8.861,6.958 0.592,0 1.051,-0.067 1.575,-0.133 v -5.447 c -0.591,0.13 -1.18,0.13 -1.969,0.13 -4.068,0 -6.956,-3.016 -7.743,-7.3479 -0.132,-0.7883 -0.197,-1.7723 -0.197,-2.691 V 79.9238 h -5.774 v 21.8522"
         style="fill:#5f6062;fill-opacity:1;fill-rule:nonzero;stroke:none;stroke-width:0.1"
         id="path130"
         inkscape:connector-curvature="0" /><path
         d="m 346.207,79.9238 v 31.7622 h 5.773 V 79.9238 Z m 6.431,40.6882 c 0,-1.97 -1.379,-3.545 -3.675,-3.545 -2.101,0 -3.48,1.575 -3.48,3.545 0,1.968 1.445,3.609 3.612,3.609 2.098,0 3.543,-1.577 3.543,-3.609"
         style="fill:#5f6062;fill-opacity:1;fill-rule:nonzero;stroke:none;stroke-width:0.1"
         id="path132"
         inkscape:connector-curvature="0" /><path
         d="m 363.796,111.686 6.235,-17.7848 c 1.049,-2.9532 1.903,-5.5782 2.558,-8.2024 h 0.198 c 0.721,2.6242 1.64,5.2492 2.69,8.2024 l 6.169,17.7848 h 6.038 l -12.47,-31.7622 h -5.513 l -12.075,31.7622 h 6.17"
         style="fill:#5f6062;fill-opacity:1;fill-rule:nonzero;stroke:none;stroke-width:0.1"
         id="path134"
         inkscape:connector-curvature="0" /><path
         d="m 412.626,98.8891 c 0.064,3.6099 -1.51,9.3189 -8.007,9.3189 -5.907,0 -8.399,-5.316 -8.859,-9.3189 z m -16.932,-4.1352 c 0.132,-7.8098 5.053,-11.025 10.893,-11.025 4.136,0 6.694,0.7211 8.795,1.641 l 1.049,-4.1347 c -2.034,-0.918 -5.578,-2.0321 -10.631,-2.0321 -9.779,0 -15.618,6.4957 -15.618,16.077 0,9.5819 5.644,17.0639 14.896,17.0639 10.434,0 13.126,-9.058 13.126,-14.8991 0,-1.1808 -0.065,-2.034 -0.197,-2.691 h -22.313"
         style="fill:#5f6062;fill-opacity:1;fill-rule:nonzero;stroke:none;stroke-width:0.1"
         id="path136"
         inkscape:connector-curvature="0" /></g></g></svg>